<svg width="18" height="26" viewBox="0 0 18 26" fill="none" xmlns="http://www.w3.org/2000/svg">
<path d="M8.99999 0.52002C4.40327 0.52002 0.679993 4.2433 0.679993 8.84002C0.679993 12.6405 2.68687 16.7253 4.66124 19.89C6.63562 23.0547 8.60999 25.3013 8.60999 25.3013C8.70952 25.413 8.85171 25.478 8.99999 25.478C9.14827 25.478 9.29046 25.413 9.38999 25.3013C9.38999 25.3013 11.3664 23.008 13.3387 19.825C15.3111 16.642 17.32 12.5674 17.32 8.84002C17.32 4.2433 13.5967 0.52002 8.99999 0.52002ZM8.99999 1.56002C13.0361 1.56002 16.28 4.80393 16.28 8.84002C16.28 12.1855 14.3889 16.1627 12.4612 19.2725C10.8464 21.8786 9.47937 23.5564 8.99999 24.1313C8.51656 23.5605 7.14952 21.9192 5.53874 19.3375C3.61312 16.25 1.71999 12.2667 1.71999 8.84002C1.71999 4.80393 4.9639 1.56002 8.99999 1.56002ZM8.99999 5.72002C6.99515 5.72002 5.35999 7.35518 5.35999 9.36002C5.35999 11.3649 6.99515 13 8.99999 13C11.0048 13 12.64 11.3649 12.64 9.36002C12.64 7.35518 11.0048 5.72002 8.99999 5.72002ZM8.99999 6.76002C10.4422 6.76002 11.6 7.91783 11.6 9.36002C11.6 10.8022 10.4422 11.96 8.99999 11.96C7.55781 11.96 6.39999 10.8022 6.39999 9.36002C6.39999 7.91783 7.55781 6.76002 8.99999 6.76002Z" fill="#F24242"/>
</svg>
