<svg width="24" height="24" viewBox="0 0 24 24" fill="none" xmlns="http://www.w3.org/2000/svg">
<path d="M5.15672 0.553895C4.75656 0.521395 4.31172 0.637176 3.90141 0.925614C3.53984 1.17749 2.75984 1.79702 2.03062 2.4978C1.66703 2.84718 1.31969 3.21077 1.05156 3.56827C0.781405 3.92577 0.54578 4.2528 0.559999 4.72811C0.574218 5.15468 0.616874 6.41608 1.52484 8.34983C2.43281 10.2816 4.19391 12.9323 7.62875 16.3692C11.0656 19.8061 13.7164 21.5672 15.6481 22.4751C17.5798 23.3831 18.8433 23.4258 19.2698 23.44C19.7431 23.4542 20.0702 23.2186 20.4277 22.9484C20.7852 22.6783 21.1488 22.333 21.4981 21.9694C22.1969 21.2401 22.8164 20.4601 23.0683 20.0986C23.6431 19.28 23.5477 18.3131 22.9078 17.8642C22.5056 17.5819 18.8067 15.12 18.2502 14.7787C17.6855 14.4334 17.0355 14.5898 16.4545 14.8966C15.9975 15.1383 14.7605 15.8472 14.407 16.0503C14.1409 15.8817 13.1314 15.2094 10.96 13.038C8.78656 10.8666 8.11625 9.85702 7.94766 9.59093C8.15078 9.23749 8.85766 8.00655 9.10141 7.54139C9.40609 6.96249 9.57672 6.30639 9.21312 5.73764C9.06078 5.49593 8.36812 4.44171 7.66937 3.38343C6.96859 2.32515 6.30437 1.32171 6.13172 1.08202V1.07999C5.90625 0.769207 5.55484 0.586395 5.15672 0.553895ZM5.06125 1.61624C5.20344 1.63452 5.28875 1.69139 5.28875 1.69139C5.37203 1.80718 6.10125 2.89999 6.8 3.95624C7.49875 5.01452 8.21172 6.09921 8.33562 6.29624C8.35594 6.32671 8.38437 6.67202 8.18125 7.05593V7.05796C7.95172 7.49468 6.88125 9.36546 6.88125 9.36546L6.73297 9.62749L6.88531 9.88749C6.88531 9.88749 7.68359 11.2342 10.2227 13.7733C12.7637 16.3123 14.1105 17.1126 14.1105 17.1126L14.3705 17.265L14.6325 17.1167C14.6325 17.1167 16.4992 16.0483 16.94 15.8167C17.3239 15.6156 17.6692 15.642 17.7098 15.6664C18.0694 15.8878 22.0648 18.5426 22.3106 18.7153C22.3187 18.7214 22.5361 19.0505 22.2192 19.5014H22.2172C22.0262 19.7756 21.4006 20.5698 20.7486 21.2483C20.4216 21.5875 20.0864 21.9044 19.802 22.1176C19.5177 22.3309 19.2638 22.398 19.3044 22.4C18.8616 22.3858 17.8845 22.3756 16.0909 21.5326C14.2973 20.6917 11.738 19.0078 8.36406 15.6319C4.99219 12.26 3.30828 9.70061 2.46531 7.90499C1.62437 6.11139 1.61422 5.13436 1.6 4.69358C1.60203 4.73421 1.66906 4.47827 1.88234 4.19389C2.09562 3.90952 2.41047 3.57233 2.74969 3.2453C3.43016 2.59327 4.22234 1.96764 4.49656 1.77671V1.77874C4.72203 1.6203 4.91906 1.59999 5.06125 1.61624Z" fill="#F24242"/>
</svg>
